<svg width="17" height="22" viewBox="0 0 17 22" fill="none" xmlns="http://www.w3.org/2000/svg">
<path d="M9.49994 10.4657V7.75C9.49994 6.7835 8.71644 6 7.74994 6C6.78345 6 5.99994 6.7835 5.99994 7.75V13.0901L4.8009 13.3299C4.03795 13.4825 3.51833 14.1931 3.60425 14.9664L3.94926 18.0716C3.9934 18.4688 4.13214 18.8497 4.35385 19.1822L5.78705 21.3321C6.06525 21.7493 6.5336 22 7.03513 22H13.4196C13.9579 22 14.4549 21.7116 14.722 21.2442L16.1172 18.8025C16.3609 18.3761 16.5121 17.9031 16.561 17.4143L16.8325 14.699C16.9503 13.5216 16.0257 12.5 14.8425 12.5H14.2609C14.2071 12.427 14.1412 12.3415 14.0663 12.2521C13.8746 12.0234 13.5559 11.6839 13.1856 11.5358C12.8222 11.3904 12.3401 11.404 12.0281 11.4283C11.9825 11.4318 11.9382 11.4358 11.8956 11.4401C11.7921 11.1825 11.6094 10.9497 11.3363 10.7979C11.1415 10.6896 10.8781 10.5657 10.598 10.5097C10.2888 10.4479 9.85901 10.4517 9.54747 10.4638C9.53146 10.4644 9.51561 10.465 9.49994 10.4657Z" fill="#6A1B9A
"/>
<path d="M8 15C4.13401 15 1 11.866 1 8C1 4.13401 4.13401 1 8 1C11.866 1 15 4.13401 15 8C15 11.866 11.866 15 8 15ZM8 16C12.4183 16 16 12.4183 16 8C16 3.58172 12.4183 0 8 0C3.58172 0 0 3.58172 0 8C0 12.4183 3.58172 16 8 16Z" fill="#6A1B9A
"/>
<path d="M8 13C5.23858 13 3 10.7614 3 8C3 5.23858 5.23858 3 8 3C10.7614 3 13 5.23858 13 8C13 10.7614 10.7614 13 8 13ZM8 14C11.3137 14 14 11.3137 14 8C14 4.68629 11.3137 2 8 2C4.68629 2 2 4.68629 2 8C2 11.3137 4.68629 14 8 14Z" fill="#6A1B9A
"/>
<path d="M8 11C6.34315 11 5 9.65685 5 8C5 6.34315 6.34315 5 8 5C9.65685 5 11 6.34315 11 8C11 9.65685 9.65685 11 8 11ZM8 12C10.2091 12 12 10.2091 12 8C12 5.79086 10.2091 4 8 4C5.79086 4 4 5.79086 4 8C4 10.2091 5.79086 12 8 12Z" fill="#6A1B9A
"/>
<path d="M9.50002 8C9.50002 8.82843 8.82845 9.5 8.00002 9.5C7.17159 9.5 6.50002 8.82843 6.50002 8C6.50002 7.17157 7.17159 6.5 8.00002 6.5C8.82845 6.5 9.50002 7.17157 9.50002 8Z" fill="#6A1B9A
"/>
</svg>
