<svg width="24" height="24" viewBox="0 0 24 24" fill="none" xmlns="http://www.w3.org/2000/svg">
<path d="M14.5559 15.548L14.1009 16.028C14.1009 16.028 13.0179 17.167 10.0629 14.056C7.10786 10.945 8.19086 9.80605 8.19086 9.80605L8.47786 9.50305C9.18386 8.75905 9.25086 7.56505 8.63386 6.69305L7.37386 4.91005C6.60986 3.83005 5.13486 3.68805 4.25986 4.60905L2.69086 6.26005C2.25786 6.71705 1.96786 7.30805 2.00286 7.96505C2.09286 9.64505 2.81086 13.258 6.81486 17.475C11.0619 21.945 15.0469 22.123 16.6759 21.962C17.1919 21.912 17.6399 21.633 18.0009 21.253L19.4209 19.757C20.3809 18.747 20.1109 17.017 18.8829 16.311L16.9729 15.211C16.1669 14.748 15.1859 14.884 14.5559 15.547V15.548Z" fill="#10586a
"/>
</svg>
