<svg width="24" height="24" viewBox="0 0 24 24" fill="none" xmlns="http://www.w3.org/2000/svg">
<path fill-rule="evenodd" clip-rule="evenodd" d="M22.2137 8.85156H1.78516V22.2087H22.2137V8.85156ZM18.678 15.923C18.461 15.923 18.2852 16.0989 18.2852 16.3158V19.4587C18.2852 19.6757 18.461 19.8516 18.678 19.8516H19.4637C19.6807 19.8516 19.8566 19.6757 19.8566 19.4587V16.3158C19.8566 16.0989 19.6807 15.923 19.4637 15.923H18.678ZM15.5352 11.9944C15.3182 11.9944 15.1423 12.1703 15.1423 12.3873V19.4587C15.1423 19.6757 15.3182 19.8516 15.5352 19.8516H16.3209C16.5378 19.8516 16.7137 19.6757 16.7137 19.4587V12.3873C16.7137 12.1703 16.5378 11.9944 16.3209 11.9944H15.5352ZM5.29433 18.6995C6.03081 19.436 7.02933 19.8503 8.07087 19.8516C9.11279 19.8516 10.112 19.4377 10.8488 18.7009C11.5855 17.9642 11.9994 16.9649 11.9994 15.923C11.9994 14.8811 11.5855 13.8818 10.8488 13.1451C10.112 12.4083 9.11279 11.9944 8.07087 11.9944V13.5658C8.53707 13.5658 8.9928 13.7041 9.38043 13.9631C9.76806 14.2221 10.0702 14.5902 10.2486 15.021C10.427 15.4517 10.4737 15.9256 10.3827 16.3828C10.2918 16.8401 10.0673 17.2601 9.73762 17.5897C9.40797 17.9194 8.98797 18.1439 8.53073 18.2348C8.07349 18.3258 7.59954 18.2791 7.16883 18.1007C6.73812 17.9223 6.36998 17.6202 6.11098 17.2325C5.85197 16.8449 5.71373 16.3892 5.71373 15.923H4.1423C4.14355 16.9645 4.55785 17.9631 5.29433 18.6995Z" fill="#10586a
"/>
<path d="M21.4286 1H2.57143C2.15479 1.00042 1.75533 1.16611 1.46072 1.46072C1.16611 1.75533 1.00042 2.15479 1 2.57143V21.4286C1.00042 21.8452 1.16611 22.2447 1.46072 22.5393C1.75533 22.8339 2.15479 22.9996 2.57143 23H21.4286C21.8451 22.9994 22.2445 22.8336 22.5391 22.5391C22.8336 22.2445 22.9994 21.8451 23 21.4286V2.57143C22.9996 2.15479 22.8339 1.75533 22.5393 1.46072C22.2447 1.16611 21.8452 1.00042 21.4286 1ZM21.4286 7.52143C21.4286 7.82518 21.1823 8.07143 20.8786 8.07143H10.9786C10.6748 8.07143 10.4286 7.82518 10.4286 7.52143V3.12143C10.4286 2.81767 10.6748 2.57143 10.9786 2.57143H20.8786C21.1823 2.57143 21.4286 2.81767 21.4286 3.12143V7.52143ZM8.30714 2.57143C8.6109 2.57143 8.85714 2.81767 8.85714 3.12143V7.52143C8.85714 7.82518 8.6109 8.07143 8.30714 8.07143H3.12143C2.81767 8.07143 2.57143 7.82518 2.57143 7.52143V3.12143C2.57143 2.81767 2.81767 2.57143 3.12143 2.57143H8.30714ZM2.57143 21.4286V9.64286H21.4286L21.4301 21.4286H2.57143Z" fill="#10586a
"/>
</svg>
