<svg width="25" height="24" viewBox="0 0 25 24" fill="none" xmlns="http://www.w3.org/2000/svg">
<path d="M17.786 4.69113L20.1532 7.05721L17.786 4.69113ZM19.3083 2.60669L12.9075 9.00752C12.5767 9.33779 12.3512 9.75857 12.2592 10.2168L11.668 13.1764L14.6275 12.584C15.0858 12.4924 15.506 12.2677 15.8368 11.9369L22.2377 5.53608C22.43 5.34373 22.5826 5.11538 22.6867 4.86407C22.7908 4.61276 22.8444 4.3434 22.8444 4.07139C22.8444 3.79937 22.7908 3.53001 22.6867 3.2787C22.5826 3.02739 22.43 2.79904 22.2377 2.60669C22.0453 2.41435 21.817 2.26177 21.5657 2.15767C21.3143 2.05358 21.045 2 20.773 2C20.501 2 20.2316 2.05358 19.9803 2.15767C19.729 2.26177 19.5006 2.41435 19.3083 2.60669Z" fill="#10586a
"/>
<path d="M17.786 4.69113L20.1532 7.05721M19.3083 2.6067L12.9075 9.00753C12.5767 9.33779 12.3512 9.75857 12.2592 10.2168L11.668 13.1764L14.6275 12.584C15.0858 12.4924 15.506 12.2677 15.8368 11.9369L22.2377 5.53608C22.43 5.34373 22.5826 5.11538 22.6867 4.86407C22.7908 4.61276 22.8444 4.3434 22.8444 4.07139C22.8444 3.79937 22.7908 3.53001 22.6867 3.2787C22.5826 3.02739 22.43 2.79904 22.2377 2.6067C22.0453 2.41435 21.817 2.26177 21.5657 2.15767C21.3143 2.05358 21.045 2 20.773 2C20.501 2 20.2316 2.05358 19.9803 2.15767C19.729 2.26177 19.5006 2.41435 19.3083 2.6067V2.6067Z" stroke="#10586a
" stroke-width="1.64332" stroke-linecap="round" stroke-linejoin="round"/>
<path d="M20.6096 15.411V18.7639C20.6096 19.3568 20.3741 19.9253 19.9549 20.3445C19.5357 20.7637 18.9671 20.9993 18.3743 20.9993H6.08004C5.4872 20.9993 4.91864 20.7637 4.49944 20.3445C4.08023 19.9253 3.84473 19.3568 3.84473 18.7639V6.46969C3.84473 5.87685 4.08023 5.30829 4.49944 4.88908C4.91864 4.46988 5.4872 4.23438 6.08004 4.23438H9.43302" stroke="#10586a
" stroke-width="1.64332" stroke-linecap="round" stroke-linejoin="round"/>
</svg>
