<svg width="24" height="24" viewBox="0 0 24 24" fill="none" xmlns="http://www.w3.org/2000/svg">
<g clip-path="url(#clip0_1546_20523)">
<path d="M12.247 7.44531C11.7075 7.44594 11.1724 7.54303 10.667 7.73198L16.5337 13.5986C16.7251 13.087 16.8222 12.5449 16.8203 11.9986C16.815 10.7892 16.3309 9.63108 15.4738 8.77773C14.6167 7.92439 13.4565 7.4453 12.247 7.44531Z" fill="#10586a
"/>
<path d="M22.8603 11.6901C20.6136 7.53677 16.6736 5.02344 12.3136 5.02344C11.1265 5.02622 9.94742 5.21749 8.82031 5.5901L9.89365 6.6701C10.6842 6.46579 11.4971 6.36054 12.3136 6.35677C16.067 6.35677 19.4803 8.4501 21.5136 11.9768C20.7678 13.2852 19.7789 14.4392 18.6003 15.3768L19.547 16.3234C20.911 15.223 22.0439 13.8636 22.8803 12.3234L23.0536 12.0034L22.8603 11.6901Z" fill="#10586a
"/>
<path d="M3.24691 3.85271L6.22025 6.82604C4.34086 8.03612 2.80485 9.70989 1.76025 11.686L1.58691 11.9994L1.76025 12.3194C4.00691 16.4727 7.94691 18.986 12.3069 18.986C14.0087 18.9857 15.6884 18.6005 17.2202 17.8594L20.5536 21.1927L21.7202 20.1927L4.38691 2.85938L3.24691 3.85271ZM8.78025 9.38604C8.15654 10.2656 7.8642 11.3376 7.95499 12.412C8.04578 13.4865 8.51385 14.4942 9.27632 15.2566C10.0388 16.0191 11.0465 16.4872 12.1209 16.578C13.1954 16.6688 14.2673 16.3764 15.1469 15.7527L16.2136 16.8194C14.9788 17.3472 13.6498 17.6193 12.3069 17.6194C8.55358 17.6194 5.14025 15.526 3.10691 11.9994C4.08272 10.2715 5.48806 8.82484 7.18691 7.79937L8.78025 9.38604Z" fill="#10586a
"/>
</g>
<defs>
<clipPath id="clip0_1546_20523">
<rect width="24" height="24" fill="white"/>
</clipPath>
</defs>
</svg>
