<svg width="24" height="24" viewBox="0 0 24 24" fill="none" xmlns="http://www.w3.org/2000/svg">
<g clip-path="url(#clip0_1546_20524)">
<path d="M22.4131 11.6901C20.1665 7.53677 16.2265 5.02344 11.8665 5.02344C7.50648 5.02344 3.55982 7.53677 1.33315 11.6901L1.14648 12.0034L1.31982 12.3234C3.56648 16.4768 7.50648 18.9901 11.8665 18.9901C16.2265 18.9901 20.1731 16.5101 22.4131 12.3234L22.5865 12.0034L22.4131 11.6901ZM11.8665 17.6234C8.11315 17.6234 4.66648 15.5301 2.66648 12.0034C4.66648 8.47677 8.11315 6.38344 11.8665 6.38344C15.6198 6.38344 19.0265 8.48344 21.0598 12.0034C19.0265 15.5301 15.6132 17.6234 11.8665 17.6234Z" fill="#10586a
"/>
<path d="M12.0597 16.592C14.5854 16.592 16.633 14.5444 16.633 12.0186C16.633 9.49286 14.5854 7.44531 12.0597 7.44531C9.53388 7.44531 7.48633 9.49286 7.48633 12.0186C7.48633 14.5444 9.53388 16.592 12.0597 16.592Z" fill="#10586a
"/>
</g>
<defs>
<clipPath id="clip0_1546_20524">
<rect width="24" height="24" fill="white"/>
</clipPath>
</defs>
</svg>
