<svg width="40" height="24" viewBox="0 0 31 17" fill="none" xmlns="http://www.w3.org/2000/svg">
<path d="M10.6108 14.9427C10.2243 15.1413 9.78677 14.7942 9.86457 14.3508L10.6943 9.62126L7.17196 6.26462C6.84278 5.95092 7.01318 5.37737 7.45417 5.31472L12.3526 4.61885L14.5368 0.292305C14.7335 -0.097435 15.2665 -0.097435 15.4632 0.292305L17.6474 4.61885L22.5458 5.31472C22.9868 5.37737 23.1572 5.95092 22.828 6.26462L19.3057 9.62126L20.1354 14.3508C20.2132 14.7942 19.7757 15.1413 19.3892 14.9427L15 12.6868L10.6108 14.9427Z" fill="#10586a
"/>
<path d="M1.79035 15.9692C1.74173 16.2464 2.01521 16.4633 2.25673 16.3392L5 14.9292L7.74327 16.3392C7.98479 16.4633 8.25827 16.2464 8.20965 15.9692L7.69107 13.0133L9.89252 10.9154C10.0983 10.7193 9.99176 10.3609 9.71614 10.3217L6.6546 9.88678L5.28952 7.18269C5.16655 6.9391 4.83345 6.9391 4.71048 7.18269L3.3454 9.88678L0.283857 10.3217C0.00823919 10.3609 -0.0982609 10.7193 0.107477 10.9154L2.30893 13.0133L1.79035 15.9692ZM4.85573 14.2391L2.55214 15.4231L2.98605 12.9498C3.0065 12.8332 2.96804 12.7138 2.88433 12.6341L1.06755 10.9028L3.60025 10.543C3.70495 10.5281 3.79636 10.4612 3.84575 10.3634L5 8.07692L6.15425 10.3634C6.20364 10.4612 6.29505 10.5281 6.39975 10.543L8.93245 10.9028L7.11567 12.6341C7.03196 12.7138 6.9935 12.8332 7.01395 12.9498L7.44786 15.4231L5.14427 14.2391C5.05327 14.1924 4.94673 14.1924 4.85573 14.2391Z" fill="#10586a
"/>
<path d="M22.7904 15.9692C22.7417 16.2464 23.0152 16.4633 23.2567 16.3392L26 14.9292L28.7433 16.3392C28.9848 16.4633 29.2583 16.2464 29.2096 15.9692L28.6911 13.0133L30.8925 10.9154C31.0983 10.7193 30.9918 10.3609 30.7161 10.3217L27.6546 9.88678L26.2895 7.18269C26.1666 6.9391 25.8334 6.9391 25.7105 7.18269L24.3454 9.88678L21.2839 10.3217C21.0082 10.3609 20.9017 10.7193 21.1075 10.9154L23.3089 13.0133L22.7904 15.9692ZM25.8557 14.2391L23.5521 15.4231L23.986 12.9498C24.0065 12.8332 23.968 12.7138 23.8843 12.6341L22.0676 10.9028L24.6002 10.543C24.7049 10.5281 24.7964 10.4612 24.8458 10.3634L26 8.07692L27.1542 10.3634C27.2036 10.4612 27.2951 10.5281 27.3998 10.543L29.9324 10.9028L28.1157 12.6341C28.032 12.7138 27.9935 12.8332 28.014 12.9498L28.4479 15.4231L26.1443 14.2391C26.0533 14.1924 25.9467 14.1924 25.8557 14.2391Z" fill="#10586a
"/>
</svg>
