<svg width="24" height="24" viewBox="0 0 24 24" fill="none" xmlns="http://www.w3.org/2000/svg">
<path d="M9.05233 8.63639V9.58762H10.0036L15.0472 9.58762C15.0482 9.58812 15.0493 9.58876 15.0505 9.58952L15.0505 13.8768C15.0493 13.8775 15.0482 13.8782 15.0472 13.8787L10.0036 13.8787H9.05233V14.8299V17.7243L3.04928 11.7468L9.05233 5.74371V8.63639ZM21.0488 6.2929V17.2013C21.0488 17.916 20.7584 18.5515 20.2325 19.1021C19.7325 19.5991 19.1081 19.8769 18.3732 19.8769H13.8563V19.4917H18.3732C19.6518 19.4917 20.6635 18.4799 20.6635 17.2013V6.2929C20.6635 5.04009 19.6772 3.97464 18.3732 3.97464H13.8563V3.6173H18.3732C19.1269 3.6173 19.746 3.88093 20.2325 4.36419C20.7525 4.90888 21.0488 5.57074 21.0488 6.2929Z" stroke="#ffff
" stroke-width="1.90246"/>
</svg>
