<svg width="24" height="24" viewBox="0 0 24 24" fill="none" xmlns="http://www.w3.org/2000/svg">
<path d="M9.88889 2.88889C9.88889 2.39797 10.2869 2 10.7778 2H22.1111C22.602 2 23 2.39797 23 2.88889V4.22222C23 4.71314 22.602 5.11111 22.1111 5.11111H10.7778C10.2869 5.11111 9.88889 4.71314 9.88889 4.22222V2.88889ZM9.88889 19.7778C9.88889 19.2869 10.2869 18.8889 10.7778 18.8889H22.1111C22.602 18.8889 23 19.2869 23 19.7778V21.1111C23 21.602 22.602 22 22.1111 22H10.7778C10.2869 22 9.88889 21.602 9.88889 21.1111V19.7778ZM14.3333 11.3333C14.3333 10.8424 14.7313 10.4444 15.2222 10.4444H22.1111C22.602 10.4444 23 10.8424 23 11.3333V12.6667C23 13.1576 22.602 13.5556 22.1111 13.5556H15.2222C14.7313 13.5556 14.3333 13.1576 14.3333 12.6667V11.3333ZM13.2222 12L8.64901 6.51215C8.31637 6.11297 7.66667 6.3482 7.66667 6.86781V10.4444H1.55556C1.24873 10.4444 1 10.6932 1 11V13C1 13.3068 1.24873 13.5556 1.55556 13.5556H7.66667V17.1322C7.66667 17.6518 8.31637 17.887 8.64901 17.4879L13.2222 12Z" fill="#10586a
"/>
</svg>
