<svg width="25" height="25" viewBox="0 0 16 16" fill="none" xmlns="http://www.w3.org/2000/svg">
<path d="M8.93158 0.727149C8.68891 -0.242382 7.31109 -0.242384 7.06842 0.727147L6.99691 1.01288C6.81397 1.74378 5.89902 1.98894 5.37514 1.44743L5.17035 1.23574C4.47543 0.517432 3.28219 1.20634 3.55681 2.16731L3.63774 2.45052C3.84476 3.17497 3.17497 3.84476 2.45053 3.63774L2.16732 3.55681C1.20634 3.28219 0.51743 4.47542 1.23574 5.17034L1.44743 5.37514C1.98894 5.89902 1.74378 6.81397 1.01288 6.99691L0.727149 7.06842C-0.242382 7.31109 -0.242384 8.68891 0.727147 8.93158L1.01288 9.00309C1.74378 9.18603 1.98894 10.101 1.44743 10.6249L1.23574 10.8297C0.517432 11.5246 1.20634 12.7178 2.16731 12.4432L2.45052 12.3623C3.17497 12.1552 3.84476 12.825 3.63774 13.5495L3.55681 13.8327C3.28219 14.7937 4.47542 15.4826 5.17034 14.7643L5.37514 14.5526C5.89902 14.0111 6.81397 14.2562 6.99691 14.9871L7.06842 15.2729C7.31109 16.2424 8.68891 16.2424 8.93158 15.2729L9.00309 14.9871C9.18603 14.2562 10.101 14.0111 10.6249 14.5526L10.8297 14.7643C11.5246 15.4826 12.7178 14.7937 12.4432 13.8327L12.3623 13.5495C12.1552 12.825 12.825 12.1552 13.5495 12.3623L13.8327 12.4432C14.7937 12.7178 15.4826 11.5246 14.7643 10.8297L14.5526 10.6249C14.0111 10.101 14.2562 9.18603 14.9871 9.00309L15.2729 8.93158C16.2424 8.68891 16.2424 7.31109 15.2729 7.06842L14.9871 6.99691C14.2562 6.81397 14.0111 5.89902 14.5526 5.37514L14.7643 5.17035C15.4826 4.47543 14.7937 3.28219 13.8327 3.55681L13.5495 3.63774C12.825 3.84476 12.1552 3.17497 12.3623 2.45053L12.4432 2.16732C12.7178 1.20634 11.5246 0.51743 10.8297 1.23574L10.6249 1.44743C10.101 1.98894 9.18603 1.74378 9.00309 1.01288L8.93158 0.727149ZM7.99985 12.9977C5.23972 12.9977 3.0022 10.7602 3.0022 8.00003C3.0022 5.2399 5.23972 3.00238 7.99985 3.00238C10.76 3.00238 12.9975 5.2399 12.9975 8.00003C12.9975 10.7602 10.76 12.9977 7.99985 12.9977Z" fill="#10586a
"/>
<path d="M8 12C8.55228 12 9 11.5523 9 11H7C7 11.5523 7.44772 12 8 12Z" fill="#10586a
"/>
<path d="M8.49758 4.54952C8.49918 4.53323 8.5 4.51671 8.5 4.5C8.5 4.22386 8.27614 4 8 4C7.72386 4 7.5 4.22386 7.5 4.5C7.5 4.51671 7.50082 4.53323 7.50242 4.54952C6.3601 4.78022 5.50001 5.78967 5.50001 7C5.50001 7.5488 5.25 10 4.5 10.5H11.5C10.75 10 10.5 7.5488 10.5 7C10.5 5.78966 9.63991 4.78021 8.49758 4.54952Z" fill="#10586a
"/>
</svg>
