<svg width="24" height="24" viewBox="0 0 24 24" fill="none" xmlns="http://www.w3.org/2000/svg">
<path d="M16.7661 15.9786C16.7661 16.4112 16.4155 16.7619 15.9829 16.7619V16.7619C15.5503 16.7619 15.1996 16.4112 15.1996 15.9786V15.9786C15.1996 15.546 15.5503 15.1953 15.9829 15.1953V15.1953C16.4155 15.1953 16.7661 15.546 16.7661 15.9786V15.9786ZM12.0664 15.9786C12.0664 16.4112 12.4171 16.7619 12.8497 16.7619V16.7619C13.2823 16.7619 13.633 16.4112 13.633 15.9786V15.9786C13.633 15.546 13.2823 15.1953 12.8497 15.1953V15.1953C12.4171 15.1953 12.0664 15.546 12.0664 15.9786V15.9786ZM19.8993 15.9786C19.8993 16.4112 19.5486 16.7619 19.116 16.7619V16.7619C18.6834 16.7619 18.3327 16.4112 18.3327 15.9786V15.9786C18.3327 15.546 18.6834 15.1953 19.116 15.1953V15.1953C19.5486 15.1953 19.8993 15.546 19.8993 15.9786V15.9786Z" fill="#10586a
"/>
<path fill-rule="evenodd" clip-rule="evenodd" d="M6.42694 10.184V7.05067C6.42694 6.47461 6.54041 5.9042 6.76085 5.37199C6.9813 4.83978 7.30442 4.35621 7.71175 3.94887C8.11909 3.54154 8.60266 3.21842 9.13487 2.99797C9.66708 2.77753 10.2375 2.66406 10.8136 2.66406C11.3896 2.66406 11.96 2.77753 12.4922 2.99797C13.0244 3.21842 13.508 3.54154 13.9154 3.94887C14.3227 4.35621 14.6458 4.83978 14.8663 5.37199C15.0867 5.9042 15.2002 6.47461 15.2002 7.05067V10.184H17.0801C17.5787 10.184 18.0569 10.382 18.4095 10.7346C18.762 11.0872 18.9601 11.5653 18.9601 12.0639V12.7533C19.6684 12.8971 20.3052 13.2814 20.7626 13.841C21.22 14.4006 21.4699 15.1011 21.4699 15.8239C21.4699 16.5467 21.22 17.2472 20.7626 17.8068C20.3052 18.3664 19.6684 18.7507 18.9601 18.8945V19.5838C18.9601 20.0824 18.762 20.5606 18.4095 20.9132C18.0569 21.2657 17.5787 21.4638 17.0801 21.4638H4.54697C4.04837 21.4638 3.57019 21.2657 3.21762 20.9132C2.86506 20.5606 2.66699 20.0824 2.66699 19.5838V12.0639C2.66699 11.5653 2.86506 11.0872 3.21762 10.7346C3.57019 10.382 4.04837 10.184 4.54697 10.184H6.42694ZM7.68026 7.05067C7.68026 6.21967 8.01037 5.42271 8.59798 4.8351C9.18559 4.24749 9.98255 3.91738 10.8136 3.91738C11.6446 3.91738 12.4415 4.24749 13.0291 4.8351C13.6167 5.42271 13.9468 6.21967 13.9468 7.05067V10.184H7.68026V7.05067ZM13.3202 13.9439C12.8216 13.9439 12.3434 14.142 11.9908 14.4945C11.6383 14.8471 11.4402 15.3253 11.4402 15.8239C11.4402 16.3225 11.6383 16.8007 11.9908 17.1532C12.3434 17.5058 12.8216 17.7039 13.3202 17.7039H18.3335C18.8321 17.7039 19.3102 17.5058 19.6628 17.1532C20.0154 16.8007 20.2134 16.3225 20.2134 15.8239C20.2134 15.3253 20.0154 14.8471 19.6628 14.4945C19.3102 14.142 18.8321 13.9439 18.3335 13.9439H13.3202Z" fill="#10586a
"/>
</svg>
