<svg width="24" height="24" viewBox="0 0 24 24" fill="none" xmlns="http://www.w3.org/2000/svg">
<path d="M0 6C0 4.34315 1.34315 3 3 3H21C22.6569 3 24 4.34315 24 6V18C24 19.6569 22.6569 21 21 21H3C1.34315 21 0 19.6569 0 18V6ZM3.75 7.5C3.33579 7.5 3 7.83579 3 8.25V9.75C3 10.1642 3.33579 10.5 3.75 10.5H6.75C7.16421 10.5 7.5 10.1642 7.5 9.75V8.25C7.5 7.83579 7.16421 7.5 6.75 7.5H3.75ZM3.75 12C3.33579 12 3 12.3358 3 12.75C3 13.1642 3.33579 13.5 3.75 13.5H11.25C11.6642 13.5 12 13.1642 12 12.75C12 12.3358 11.6642 12 11.25 12H3.75ZM3.75 15C3.33579 15 3 15.3358 3 15.75C3 16.1642 3.33579 16.5 3.75 16.5H5.25C5.66421 16.5 6 16.1642 6 15.75C6 15.3358 5.66421 15 5.25 15H3.75ZM8.25 15C7.83579 15 7.5 15.3358 7.5 15.75C7.5 16.1642 7.83579 16.5 8.25 16.5H9.75C10.1642 16.5 10.5 16.1642 10.5 15.75C10.5 15.3358 10.1642 15 9.75 15H8.25ZM12.75 15C12.3358 15 12 15.3358 12 15.75C12 16.1642 12.3358 16.5 12.75 16.5H14.25C14.6642 16.5 15 16.1642 15 15.75C15 15.3358 14.6642 15 14.25 15H12.75ZM17.25 15C16.8358 15 16.5 15.3358 16.5 15.75C16.5 16.1642 16.8358 16.5 17.25 16.5H18.75C19.1642 16.5 19.5 16.1642 19.5 15.75C19.5 15.3358 19.1642 15 18.75 15H17.25Z" fill="#10586A"/>
</svg>
