<svg width="24" height="24" viewBox="0 0 24 24" fill="none" xmlns="http://www.w3.org/2000/svg">
<path d="M11.9167 11.9974C15.0466 11.9974 17.5833 9.46068 17.5833 6.33073C17.5833 3.20078 15.0466 0.664062 11.9167 0.664062C8.78672 0.664062 6.25 3.20078 6.25 6.33073C6.25 9.46068 8.78672 11.9974 11.9167 11.9974ZM15.8833 13.4141H15.144C14.1612 13.8656 13.0677 14.1224 11.9167 14.1224C10.7656 14.1224 9.67656 13.8656 8.68932 13.4141H7.95C4.6651 13.4141 2 16.0792 2 19.3641V21.2057C2 22.3789 2.95182 23.3307 4.125 23.3307H19.7083C20.8815 23.3307 21.8333 22.3789 21.8333 21.2057V19.3641C21.8333 16.0792 19.1682 13.4141 15.8833 13.4141Z" fill="#10586a
"/>
</svg>
